<svg xmlns="http://www.w3.org/2000/svg" width="759.318" height="139.02" viewBox="0 0 759.318 139.02">
  <defs>
    <style>
      .cls-1 {
        fill: #e0edf8;
      }

      .cls-2 {
        fill: #177dc9;
      }
    </style>
  </defs>
  <g id="Group_56" data-name="Group 56" transform="translate(-650.001 -423.002)">
    <g id="Group_79" data-name="Group 79" transform="translate(1309.533 461.426)">
      <path id="Union_6" data-name="Union 6" class="cls-1" d="M0,0,35.637,49.883a4.154,4.154,0,0,1,.18-1.09c.113-.258.215-.539.355-.8a1.458,1.458,0,0,0,.141-.215L48.75,30.359,24.957,0ZM39.207,49.883l12.477,17.48,23.16,32.426H99.785L64.148,49.883Z" transform="translate(99.785 99.789) rotate(180)"/>
      <path id="Union_7" data-name="Union 7" class="cls-2" d="M74.844,0,51.074,33.277,39.207,49.883H64.148L99.785,0ZM0,99.789H28.512L49.5,70.422,36.313,51.988a.5.5,0,0,0-.141-.2,8.45,8.45,0,0,1-.379-.855,4.243,4.243,0,0,1-.156-.969v-.078Z" transform="translate(99.785 99.789) rotate(180)"/>
    </g>
    <path id="Path_86" data-name="Path 86" class="cls-1" d="M55.217,2.046A46.366,46.366,0,0,1,30.569-4.627,47.779,47.779,0,0,1,13.335-22.792a53.079,53.079,0,0,1-6.3-25.95,53.079,53.079,0,0,1,6.3-25.95A47.779,47.779,0,0,1,30.569-92.858a46.366,46.366,0,0,1,24.647-6.673,55.26,55.26,0,0,1,23.814,5.1A39.272,39.272,0,0,1,95.616-80.625L83.2-65.425a31.715,31.715,0,0,0-7.042-7.044,37.844,37.844,0,0,0-9.173-5,26.947,26.947,0,0,0-9.544-1.854,27.269,27.269,0,0,0-14.733,3.985,28.291,28.291,0,0,0-10.1,10.936A32.763,32.763,0,0,0,28.9-48.743a31.589,31.589,0,0,0,3.8,15.57A29.66,29.66,0,0,0,42.986-22.236a26.6,26.6,0,0,0,14.455,4.078,28.1,28.1,0,0,0,9.451-1.576,35.052,35.052,0,0,0,8.617-4.541A37.76,37.76,0,0,0,83.2-31.69l12.416,15.2Q89.5-8.334,78.382-3.144A54.154,54.154,0,0,1,55.217,2.046Zm102.3,0a51.63,51.63,0,0,1-26.13-6.58,47.881,47.881,0,0,1-18.069-18.073,51.66,51.66,0,0,1-6.579-26.136,53.664,53.664,0,0,1,6.672-26.136,46.555,46.555,0,0,1,17.976-17.98,53.634,53.634,0,0,1,26.13-6.673,51.263,51.263,0,0,1,25.945,6.58,47.881,47.881,0,0,1,18.069,18.073,51.659,51.659,0,0,1,6.579,26.136,51.659,51.659,0,0,1-6.579,26.136A47.881,47.881,0,0,1,183.458-4.534,51.263,51.263,0,0,1,157.513,2.046Zm0-20.019a26.594,26.594,0,0,0,14.362-3.985,26.957,26.957,0,0,0,9.915-10.936,33.025,33.025,0,0,0,3.336-15.848A32.352,32.352,0,0,0,181.7-64.591a27.848,27.848,0,0,0-9.915-10.936,26.129,26.129,0,0,0-14.27-3.985,28.38,28.38,0,0,0-14.362,4.078A26.194,26.194,0,0,0,133.236-64.5a34.744,34.744,0,0,0-3.521,15.756,34.744,34.744,0,0,0,3.521,15.756,26.194,26.194,0,0,0,9.915,10.936A28.379,28.379,0,0,0,157.513-17.973ZM267.963,2.046a42.555,42.555,0,0,1-23.443-6.58,46.86,46.86,0,0,1-16.308-17.98q-6.023-11.4-6.023-26.228a56.168,56.168,0,0,1,5.93-26.136,46,46,0,0,1,16.215-18.073,42.228,42.228,0,0,1,23.258-6.58,42.241,42.241,0,0,1,13.621,2.224,44.651,44.651,0,0,1,11.86,6.024,32.665,32.665,0,0,1,8.339,8.434,18.545,18.545,0,0,1,3.243,9.639l-6.116.741v-64.505h22.794V.192H299.282l-.556-22.8,4.448.371a16.337,16.337,0,0,1-3.15,8.712,32.543,32.543,0,0,1-7.876,7.785A42.43,42.43,0,0,1,280.936-.086,40.211,40.211,0,0,1,267.963,2.046Zm4.262-19.277a25.216,25.216,0,0,0,14.084-3.985,26.747,26.747,0,0,0,9.544-11.122,37.446,37.446,0,0,0,3.428-16.4,36.843,36.843,0,0,0-3.428-16.312,27.535,27.535,0,0,0-9.544-11.122,24.8,24.8,0,0,0-14.084-4.078,24.677,24.677,0,0,0-14.177,4.078A28.505,28.505,0,0,0,248.5-65.054a36.025,36.025,0,0,0-3.521,16.312,36.612,36.612,0,0,0,3.521,16.4,27.658,27.658,0,0,0,9.544,11.122A25.1,25.1,0,0,0,272.226-17.231ZM393.054,2.046q-15.382,0-27.149-6.395a46.615,46.615,0,0,1-18.347-17.609q-6.579-11.214-6.579-25.858a56.931,56.931,0,0,1,3.706-20.946,49.487,49.487,0,0,1,10.378-16.4,46.189,46.189,0,0,1,15.845-10.751,51.543,51.543,0,0,1,19.922-3.8A43.56,43.56,0,0,1,408.9-96.009a45.446,45.446,0,0,1,14.362,10.1,43.4,43.4,0,0,1,9.359,15.2,52.351,52.351,0,0,1,3.058,19.185l-.185,8.156H356.546L352.1-59.123H416.4l-2.78,3.151v-4.263a20,20,0,0,0-3.706-9.917,22.261,22.261,0,0,0-8.061-6.858,23.529,23.529,0,0,0-10.841-2.5q-9.081,0-15.382,3.429a22.254,22.254,0,0,0-9.544,10.1q-3.243,6.673-3.243,16.5a32.946,32.946,0,0,0,3.984,16.5,27.421,27.421,0,0,0,11.4,10.936,36.547,36.547,0,0,0,17.235,3.893,35.364,35.364,0,0,0,12.694-2.224,43.6,43.6,0,0,0,12.509-7.97l11.119,15.57a49.864,49.864,0,0,1-11.4,7.878,67.679,67.679,0,0,1-13.436,5.1A54.443,54.443,0,0,1,393.054,2.046ZM455.877.192V-97.492H477.93l.371,20.019-4.262,2.224a30.18,30.18,0,0,1,7.32-11.956,41.882,41.882,0,0,1,12.694-8.9,36.239,36.239,0,0,1,15.382-3.429q11.119,0,18.625,4.449a27.028,27.028,0,0,1,11.212,13.346q3.707,8.9,3.706,22.243V.192H520.368V-57.825a32.91,32.91,0,0,0-2.038-12.512,14.012,14.012,0,0,0-6.3-7.229,18.988,18.988,0,0,0-10.378-1.946,26.524,26.524,0,0,0-9.266,1.576,21.361,21.361,0,0,0-7.32,4.449,21.445,21.445,0,0,0-4.818,6.673,19.379,19.379,0,0,0-1.761,8.249V.192H455.877ZM614.51,2.046q-15.382,0-27.149-6.395a46.615,46.615,0,0,1-18.347-17.609q-6.579-11.214-6.579-25.858a56.932,56.932,0,0,1,3.706-20.946,49.489,49.489,0,0,1,10.378-16.4,46.19,46.19,0,0,1,15.845-10.751,51.543,51.543,0,0,1,19.922-3.8,43.56,43.56,0,0,1,18.069,3.707,45.446,45.446,0,0,1,14.362,10.1,43.4,43.4,0,0,1,9.359,15.2,52.351,52.351,0,0,1,3.058,19.185l-.185,8.156H578l-4.448-15.756h64.306l-2.78,3.151v-4.263a20,20,0,0,0-3.706-9.917,22.261,22.261,0,0,0-8.061-6.858,23.529,23.529,0,0,0-10.841-2.5q-9.081,0-15.382,3.429a22.253,22.253,0,0,0-9.544,10.1q-3.243,6.673-3.243,16.5a32.946,32.946,0,0,0,3.984,16.5,27.421,27.421,0,0,0,11.4,10.936,36.547,36.547,0,0,0,17.235,3.893,35.364,35.364,0,0,0,12.694-2.224,43.6,43.6,0,0,0,12.509-7.97l11.119,15.57a49.863,49.863,0,0,1-11.4,7.878,67.68,67.68,0,0,1-13.436,5.1A54.442,54.442,0,0,1,614.51,2.046Z" transform="translate(642.967 559.976)"/>
  </g>
</svg>
