<svg xmlns="http://www.w3.org/2000/svg" xmlns:xlink="http://www.w3.org/1999/xlink" width="475.506" height="146.919" viewBox="0 0 475.506 146.919">
  <defs>
    <linearGradient id="linear-gradient" x1="0.683" y1="0.318" x2="1" y2="1" gradientUnits="objectBoundingBox">
      <stop offset="0" stop-color="#f48d07"/>
      <stop offset="1" stop-color="#f8b136"/>
    </linearGradient>
    <linearGradient id="linear-gradient-2" x1="0.5" x2="0.5" y2="1" gradientUnits="objectBoundingBox">
      <stop offset="0" stop-color="#f6b33b"/>
      <stop offset="0.381" stop-color="#f29101"/>
      <stop offset="1" stop-color="#f6ad30"/>
    </linearGradient>
    <linearGradient id="linear-gradient-3" x1="0.954" y1="0.669" x2="0.045" y2="0.314" gradientUnits="objectBoundingBox">
      <stop offset="0" stop-color="#f6a428"/>
      <stop offset="0.366" stop-color="#f39203"/>
      <stop offset="1" stop-color="#f7ad2a"/>
    </linearGradient>
  </defs>
  <g id="h-logo" transform="translate(-145 -783)">
    <g id="Group_1663" data-name="Group 1663" transform="translate(145 783)">
      <path id="bg" d="M128.621,146.919H18.3C8.192,146.919,0,138.2,0,127.44V19.479C0,8.721,8.192,0,18.3,0H128.621c10.105,0,18.3,8.721,18.3,19.479V127.44c0,10.758-8.192,19.479-18.3,19.479" fill="#6a1b9a"/>
      <path id="body" d="M200.188,234.072a154.469,154.469,0,0,0,1.711,21.112c.366,2.415.733,4.829,1.283,7.182a106.24,106.24,0,0,0,5.561,19.254H238.5a81.161,81.161,0,0,1-9.166-26,98.908,98.908,0,0,1-1.772-13.249c-.245-2.848-.366-5.758-.428-8.792Z" transform="translate(-122.842 -134.76)" fill="url(#linear-gradient)"/>
      <g id="hands" transform="translate(43.098 34.74)">
        <path id="hand" d="M129.2,191.826l-7.77-26.154c35.736-10.9,55.022-33.265,59.955-69.932A13.482,13.482,0,1,1,208.1,99.36C201.7,146.718,175.214,177.791,129.2,191.826Z" transform="translate(-120.499 -83.134)" fill="url(#linear-gradient-2)"/>
        <path id="hand-border" d="M127.43,191.741l-8.195-27.586.709-.216c35.647-10.869,54.532-32.9,59.433-69.317a14.54,14.54,0,0,1,4.741-8.942,14.069,14.069,0,0,1,9.341-3.564c.224,0,.451.005.675.016a14.011,14.011,0,0,1,5.747,1.524,14.227,14.227,0,0,1,4.481,3.588,14.422,14.422,0,0,1,3.214,11.2,141.666,141.666,0,0,1-3.358,17.085,118.806,118.806,0,0,1-5.25,15.557,104.4,104.4,0,0,1-7.138,14.015,96.834,96.834,0,0,1-19.911,23.34,105.308,105.308,0,0,1-12.749,9.295,120.376,120.376,0,0,1-14.593,7.7,144.017,144.017,0,0,1-16.426,6.092Zm-6.342-26.592,7.344,24.723c45.216-14.029,71.343-44.854,77.662-91.631A13,13,0,0,0,203.213,88.2a12.569,12.569,0,0,0-9.151-4.577c-.2-.01-.4-.014-.6-.014a12.856,12.856,0,0,0-12.6,11.211,113.474,113.474,0,0,1-2.544,13.173,90.873,90.873,0,0,1-3.93,11.876,77.141,77.141,0,0,1-5.344,10.607,70.4,70.4,0,0,1-15.024,17.5,78.834,78.834,0,0,1-9.715,6.946,93.881,93.881,0,0,1-11.206,5.784A117.32,117.32,0,0,1,121.088,165.149Z" transform="translate(-119.235 -82.116)" fill="#fff"/>
      </g>
      <g id="spark" transform="translate(93.597 21.511)">
        <path id="spark-4" d="M336.766,77.815a38.672,38.672,0,0,0-7.141,2.706.846.846,0,0,0,.618,1.573,38.721,38.721,0,0,0,7.065-2.908.77.77,0,0,0-.542-1.372" transform="translate(-290.823 -66.396)" fill="#fff"/>
        <path id="spark-3" d="M330.507,57.161a.99.99,0,0,0-1.354-1.406c-2.226,1.484-4.032,3.7-5.921,5.6-1.1,1.1.807,2.581,1.895,1.5,1.826-1.814,3.944-3.549,5.38-5.7" transform="translate(-287.238 -53.573)" fill="#fff"/>
        <path id="spark-2" d="M257.589,55.283a39.49,39.49,0,0,0,4.476,6.254.84.84,0,0,0,1.332-1.022,39.447,39.447,0,0,0-4.647-6.126c-.529-.531-1.507.239-1.161.894" transform="translate(-249.514 -52.788)" fill="#fff"/>
        <path id="spark-1" d="M239.938,67.759a.994.994,0,0,0-.977,1.7c2,1.779,4.6,2.953,6.906,4.291,1.343.778,2.241-1.475.923-2.25-2.212-1.3-4.426-2.907-6.851-3.738" transform="translate(-238.601 -60.568)" fill="#fff"/>
        <path id="heart" d="M294.587,58.477a12.032,12.032,0,0,0,2.616-3.685,3.872,3.872,0,0,0,.641-2.068,2.3,2.3,0,0,0-2.941-1.779,3.463,3.463,0,0,0-2.173,3.042,3.622,3.622,0,0,0-1.015-2.161,1.825,1.825,0,0,0-2.208-.485,1.538,1.538,0,0,0-.552.753c-.451,1.234.31,2.565,1.122,3.593a23.4,23.4,0,0,0,3.2,3.318" transform="translate(-267.575 -50.846)" fill="#fff"/>
      </g>
      <g id="head" transform="translate(30.792 42.007)">
        <ellipse id="head-2" data-name="head" cx="26.441" cy="26.018" rx="26.441" ry="26.018" transform="translate(8.273 60.372) rotate(-99)" fill="url(#linear-gradient-3)"/>
        <path id="mouth" d="M163.134,197.757s14.174,7.952,12.182-8.783Z" transform="translate(-132.257 -151.033)" fill="#6a1b9a"/>
        <path id="head-border" d="M26.441,1.493A25.062,25.062,0,0,0,8.792,8.685a24.805,24.805,0,0,0-3.045,3.631,24.4,24.4,0,0,0-2.3,4.164,24.226,24.226,0,0,0,0,19.075,24.4,24.4,0,0,0,2.3,4.164,24.885,24.885,0,0,0,6.738,6.629,25.185,25.185,0,0,0,31.606-3,24.8,24.8,0,0,0,3.045-3.631,24.4,24.4,0,0,0,2.3-4.164,24.226,24.226,0,0,0,0-19.075,24.4,24.4,0,0,0-2.3-4.164A24.885,24.885,0,0,0,40.4,5.687,25.1,25.1,0,0,0,26.441,1.493m0-1.493A26.232,26.232,0,0,1,52.883,26.018,26.232,26.232,0,0,1,26.441,52.036,26.232,26.232,0,0,1,0,26.018,26.232,26.232,0,0,1,26.441,0Z" transform="translate(8.273 60.372) rotate(-99)" fill="#fff"/>
      </g>
    </g>
    <path id="Union_22" data-name="Union 22" d="M7028.577,8783.669a14.185,14.185,0,0,1-5.666-5.941,20.653,20.653,0,0,1-2.073-9.72,20.414,20.414,0,0,1,1.981-9.292,14.547,14.547,0,0,1,5.605-6.094,16.278,16.278,0,0,1,8.5-2.163,21.761,21.761,0,0,1,4.722.457,18.5,18.5,0,0,1,3.749,1.249,4.267,4.267,0,0,1,2.131,1.463,2.794,2.794,0,0,1,.244,2.194l-.306,1.279c-.161.4-.364.608-.608.608a1.761,1.761,0,0,1-.853-.365,17.294,17.294,0,0,0-4.144-1.828,16.436,16.436,0,0,0-4.691-.67,10.916,10.916,0,0,0-8.5,3.382q-3.078,3.381-3.077,10.085,0,6.154,2.925,9.567a10.107,10.107,0,0,0,8.1,3.411,14.864,14.864,0,0,0,4.205-.609,10.984,10.984,0,0,0,3.961-2.193v-7.13h-6.338a2.482,2.482,0,0,1-2.741-2.681v-.976q0-.669.608-.67h12.31a.539.539,0,0,1,.609.61v11.21a3.2,3.2,0,0,1-.244,1.4,4.787,4.787,0,0,1-.914,1.158,20.246,20.246,0,0,1-5.21,3.107,16.368,16.368,0,0,1-6.246,1.158A16.181,16.181,0,0,1,7028.577,8783.669Zm89.788.3a10.042,10.042,0,0,1-3.565-4.263,14.126,14.126,0,0,1-1.219-5.911,13.263,13.263,0,0,1,1.341-6.064,10.342,10.342,0,0,1,3.747-4.172,10.2,10.2,0,0,1,5.576-1.525,9.761,9.761,0,0,1,4.478.976,7.971,7.971,0,0,1,3.017,2.559,3.6,3.6,0,0,1,1.219-2.283,3.691,3.691,0,0,1,2.316-.7h.3c.283,0,.426.184.426.55v21.327c0,.366-.143.55-.426.55h-3.6c-.323,0-.486-.184-.486-.55v-2.619a8.471,8.471,0,0,1-3.229,2.8,9.518,9.518,0,0,1-4.205.914A9.921,9.921,0,0,1,7118.365,8783.972Zm1.92-15.78q-2.013,1.828-2.012,5.606a8.336,8.336,0,0,0,1.006,4.387,6.071,6.071,0,0,0,2.5,2.376,6.657,6.657,0,0,0,2.956.731,8.051,8.051,0,0,0,3.077-.64,5.732,5.732,0,0,0,2.62-2.285,10.392,10.392,0,0,0,0-9.171,5.625,5.625,0,0,0-2.59-2.225,7.866,7.866,0,0,0-2.925-.61A6.674,6.674,0,0,0,7120.285,8768.191Zm-15.905,15.691q-1.523-1.677-1.522-5.333v-26.872c0-.364.161-.549.486-.549h.306q3.716,0,3.716,4.2v22.912q0,3.168,2.377,3.169a3.179,3.179,0,0,0,1.645-.4,5.565,5.565,0,0,0,1.28-1.068.836.836,0,0,1,.608-.363.436.436,0,0,1,.428.243,1.205,1.205,0,0,1,.122.548,5.69,5.69,0,0,1-.519,2.194,5.192,5.192,0,0,1-1.676,2.1,5,5,0,0,1-3.107.883A5.324,5.324,0,0,1,7104.38,8783.883Zm-23.185.089a10.028,10.028,0,0,1-3.565-4.263,14.126,14.126,0,0,1-1.22-5.911,13.263,13.263,0,0,1,1.342-6.064,10.34,10.34,0,0,1,3.746-4.172,10.2,10.2,0,0,1,5.576-1.525,9.768,9.768,0,0,1,4.479.976,7.99,7.99,0,0,1,3.018,2.559,3.586,3.586,0,0,1,1.219-2.283,3.681,3.681,0,0,1,2.314-.7h.3c.285,0,.426.184.426.55v21.327c0,.366-.141.55-.426.55h-3.594c-.326,0-.488-.184-.488-.55v-2.619a8.471,8.471,0,0,1-3.229,2.8,9.512,9.512,0,0,1-4.205.914A9.917,9.917,0,0,1,7081.2,8783.972Zm1.919-15.78q-2.011,1.828-2.011,5.606a8.346,8.346,0,0,0,1,4.387,6.074,6.074,0,0,0,2.5,2.376,6.658,6.658,0,0,0,2.957.731,8.034,8.034,0,0,0,3.075-.64,5.734,5.734,0,0,0,2.621-2.285,10.392,10.392,0,0,0,0-9.171,5.628,5.628,0,0,0-2.589-2.225,7.876,7.876,0,0,0-2.927-.61A6.674,6.674,0,0,0,7083.114,8768.191Zm-92.407,15.78a10.049,10.049,0,0,1-3.565-4.263,14.126,14.126,0,0,1-1.218-5.911,13.262,13.262,0,0,1,1.34-6.064,10.338,10.338,0,0,1,3.748-4.172,10.19,10.19,0,0,1,5.575-1.525,9.768,9.768,0,0,1,4.479.976,7.986,7.986,0,0,1,3.017,2.559,3.6,3.6,0,0,1,1.219-2.283,3.681,3.681,0,0,1,2.314-.7h.3q.428,0,.428.55v21.327q0,.549-.428.55h-3.594q-.488,0-.488-.55v-2.619a8.459,8.459,0,0,1-3.23,2.8,9.511,9.511,0,0,1-4.2.914A9.919,9.919,0,0,1,6990.707,8783.972Zm1.919-15.78q-2.011,1.828-2.011,5.606a8.365,8.365,0,0,0,1,4.387,6.079,6.079,0,0,0,2.5,2.376,6.661,6.661,0,0,0,2.956.731,8.059,8.059,0,0,0,3.078-.64,5.734,5.734,0,0,0,2.619-2.285,10.392,10.392,0,0,0,0-9.171,5.623,5.623,0,0,0-2.589-2.225,7.874,7.874,0,0,0-2.925-.61A6.679,6.679,0,0,0,6992.626,8768.191Zm-68.643,15.78a10.042,10.042,0,0,1-3.565-4.263,14.126,14.126,0,0,1-1.22-5.911,13.275,13.275,0,0,1,1.341-6.064,10.347,10.347,0,0,1,3.749-4.172,10.19,10.19,0,0,1,5.575-1.525,9.781,9.781,0,0,1,4.479.976,7.983,7.983,0,0,1,3.016,2.559,3.6,3.6,0,0,1,1.219-2.283,3.681,3.681,0,0,1,2.314-.7h.306q.426,0,.427.55v21.327q0,.549-.427.55H6937.6c-.326,0-.488-.184-.488-.55v-2.619a8.464,8.464,0,0,1-3.229,2.8,9.509,9.509,0,0,1-4.205.914A9.917,9.917,0,0,1,6923.983,8783.972Zm1.919-15.78q-2.011,1.828-2.011,5.606a8.355,8.355,0,0,0,1.006,4.387,6.058,6.058,0,0,0,2.5,2.376,6.65,6.65,0,0,0,2.955.731,8.051,8.051,0,0,0,3.077-.64,5.725,5.725,0,0,0,2.619-2.285,10.392,10.392,0,0,0,0-9.171,5.618,5.618,0,0,0-2.589-2.225,7.866,7.866,0,0,0-2.925-.61A6.679,6.679,0,0,0,6925.9,8768.191Zm-15.9,15.691q-1.523-1.677-1.522-5.333v-26.872c0-.364.162-.549.487-.549h.3q3.719,0,3.719,4.2v22.912q0,3.168,2.375,3.169a3.186,3.186,0,0,0,1.646-.4,5.557,5.557,0,0,0,1.278-1.068.839.839,0,0,1,.61-.363.431.431,0,0,1,.426.243,1.193,1.193,0,0,1,.122.548,5.72,5.72,0,0,1-.517,2.194,5.2,5.2,0,0,1-1.676,2.1,5.008,5.008,0,0,1-3.108.883A5.326,5.326,0,0,1,6910,8783.883Zm-23.186.089a10.044,10.044,0,0,1-3.563-4.263,14.1,14.1,0,0,1-1.22-5.911,13.238,13.238,0,0,1,1.342-6.064,10.335,10.335,0,0,1,3.747-4.172,10.187,10.187,0,0,1,5.574-1.525,9.775,9.775,0,0,1,4.479.976,7.968,7.968,0,0,1,3.016,2.559,3.6,3.6,0,0,1,1.219-2.283,3.691,3.691,0,0,1,2.316-.7h.3q.428,0,.428.55v21.327q0,.549-.428.55h-3.595q-.488,0-.488-.55v-2.619a8.464,8.464,0,0,1-3.229,2.8,9.5,9.5,0,0,1-4.2.914A9.928,9.928,0,0,1,6886.813,8783.972Zm1.919-15.78q-2.008,1.828-2.011,5.606a8.355,8.355,0,0,0,1.006,4.387,6.082,6.082,0,0,0,2.5,2.376,6.654,6.654,0,0,0,2.955.731,8.047,8.047,0,0,0,3.077-.64,5.73,5.73,0,0,0,2.619-2.285,10.392,10.392,0,0,0,0-9.171,5.621,5.621,0,0,0-2.588-2.225,7.87,7.87,0,0,0-2.925-.61A6.683,6.683,0,0,0,6888.731,8768.191Zm180.733,16.819c-.326,0-.487-.184-.487-.55v-11.882a6.622,6.622,0,0,0-1.524-4.755,5.4,5.4,0,0,0-4.082-1.583,5.787,5.787,0,0,0-4.327,1.614q-1.583,1.614-1.583,5.029v11.576q0,.549-.428.55h-3.595q-.488,0-.487-.55v-32.783c0-.364.162-.549.487-.549h.3q3.719,0,3.719,4.2v9.994a7.1,7.1,0,0,1,2.68-2.347,8.957,8.957,0,0,1,4.267-.944,8.76,8.76,0,0,1,6.643,2.619,9.918,9.918,0,0,1,2.5,7.13v12.676q0,.549-.488.55Zm-95.119,0a.67.67,0,0,1-.671-.489l-5.058-15.905-4.936,15.905a.636.636,0,0,1-.608.489H6959.6a.727.727,0,0,1-.457-.123,1.068,1.068,0,0,1-.274-.366l-6.581-21.449q-.123-.488.366-.488h.791a4.613,4.613,0,0,1,2.863.793,5.269,5.269,0,0,1,1.585,2.984l3.595,12.8,4.875-16.024a.718.718,0,0,1,.732-.55h.608a4.227,4.227,0,0,1,2.773.793,6.306,6.306,0,0,1,1.614,2.984l3.961,12.8,4.57-15.9a.947.947,0,0,1,.975-.672h3.047q.548,0,.365.488l-6.642,21.449a.776.776,0,0,1-.183.366.713.713,0,0,1-.487.123Zm-100.237,0q-.488,0-.487-.55v-14.015h-14.99v14.015c0,.366-.162.55-.488.55h-3.655q-.488,0-.488-.55v-32.783c0-.364.163-.549.488-.549h.426q3.719,0,3.718,4.327v10.664h14.99v-14.442c0-.364.162-.549.487-.549h.426q3.719,0,3.717,4.327v29c0,.366-.161.55-.487.55Zm109.65-34.714a19.561,19.561,0,0,1-6.705-1.058,17.543,17.543,0,0,1-5.016-2.744,12.217,12.217,0,0,1-2.27-2.8,9.963,9.963,0,0,1-1.214-3.223q-.316-1.9,1.479-1.9a2.349,2.349,0,0,1,.844.16q.422.158.739.265,2.322.735,4.381,1.214a25.335,25.335,0,0,0,5.967.369q5.594-.107,8.5-4.014a18.6,18.6,0,0,0,3.324-10.029,21.841,21.841,0,0,1-4.908,1.742,20.881,20.881,0,0,1-4.275.476,17.624,17.624,0,0,1-9.5-2.8,18.017,18.017,0,0,1-6.389-7.336,23.521,23.521,0,0,1-2.271-10.454,24.267,24.267,0,0,1,2.482-11.455,17.2,17.2,0,0,1,6.758-7.127,19,19,0,0,1,9.554-2.428q6.442,0,10.5,2.956a18.345,18.345,0,0,1,6.179,8.131,31.527,31.527,0,0,1,1.846,7.5,67.215,67.215,0,0,1,.582,8.974q0,6.864-.582,13.517a30.406,30.406,0,0,1-3.43,11.931,17.392,17.392,0,0,1-6.758,7.548,17.8,17.8,0,0,1-9.418,2.592C6984.026,8750.3,6983.894,8750.3,6983.759,8750.3Zm-4.54-50.2a13.954,13.954,0,0,0-2.113,7.655q0,5.172,2.271,8.128a7.372,7.372,0,0,0,6.177,2.956,15.317,15.317,0,0,0,4.436-.634,10.844,10.844,0,0,0,3.694-1.9c0-.354.019-.7.052-1.057a11.462,11.462,0,0,0,.053-1.161q0-2.958-.263-6.494a18.234,18.234,0,0,0-1.108-5.543,11.006,11.006,0,0,0-2.745-3.8,6.485,6.485,0,0,0-4.436-1.479A6.724,6.724,0,0,0,6979.219,8700.093Zm124.056,27.607a24.234,24.234,0,0,1-4.539-.422,8.375,8.375,0,0,1-3.483-1.371,9.3,9.3,0,0,1-3.539,1.371,23.966,23.966,0,0,1-4.592.422h-22.066a19.274,19.274,0,0,1-7.918-1.426,16.548,16.548,0,0,1-4.962-3.219,16.17,16.17,0,0,1-5.544,3.431,20.668,20.668,0,0,1-7.337,1.214h-23.651a2.483,2.483,0,0,1-1.583-.369,1.854,1.854,0,0,1-.423-1.424v-.951a6.96,6.96,0,0,1,2.323-5.385,8.453,8.453,0,0,1,5.912-2.11h6.23l-8.554-26.291q-2.111-6.337,1.9-9.079a9.766,9.766,0,0,1,1.53-.9,17.747,17.747,0,0,1,2.166-.791l.738-.315c.563-.213.985.07,1.267.845l12.036,36.531h1.057a5.753,5.753,0,0,0,5.015-2.482A10.671,10.671,0,0,0,7047,8708.7v-31.041a10.9,10.9,0,0,1,1.057-5.016,5.5,5.5,0,0,1,3.166-2.8,12.749,12.749,0,0,1,1.69-.633,9.225,9.225,0,0,1,2.323-.212h.949c.774,0,1.161.351,1.161,1.057v38.854q0,4.75,2.323,6.651a7.84,7.84,0,0,0,5.067,1.9H7082.9a16.973,16.973,0,0,1-3.274-5.069,15.134,15.134,0,0,1-1.267-6.017,17.683,17.683,0,0,1,3.906-11.614,9.446,9.446,0,0,1-5.49-3.274,10.209,10.209,0,0,1-2.112-5.807v-.527a1.509,1.509,0,0,1,.265-.9c.177-.246.58-.263,1.214-.053q1.585.422,3.589.951a26.709,26.709,0,0,0,4.119.739,41.59,41.59,0,0,0,4.91.579q3.431.265,6.809.265,1.9,0,5.015.105t6.389.212q3.272.1,5.807.105,10.982.107,17.1,5.6t6.124,15.1q0,9.079-5.226,14.462a17.8,17.8,0,0,1-13.356,5.385Zm8.658-21.325a16.336,16.336,0,0,1-1.161,6.017,14.613,14.613,0,0,1-3.273,5.069h9.925a7.334,7.334,0,0,0,5.912-2.64,10.811,10.811,0,0,0,2.218-7.181q0-10.663-13.3-11.086c-.493,0-.969-.017-1.426-.053s-.968-.053-1.53-.053A18.345,18.345,0,0,1,7111.933,8706.375Zm-22.065-7.129a9.788,9.788,0,0,0-2.218,6.6,11.874,11.874,0,0,0,1.953,6.6,9.188,9.188,0,0,0,5.649,3.959,8.975,8.975,0,0,0,5.595-3.959,12.114,12.114,0,0,0,1.9-6.6,9.877,9.877,0,0,0-2.165-6.652,6.744,6.744,0,0,0-5.33-2.534A6.843,6.843,0,0,0,7089.867,8699.246ZM6907.212,8727.7h-1.795a19.274,19.274,0,0,1-7.918-1.426,16.567,16.567,0,0,1-4.963-3.219,16.161,16.161,0,0,1-5.544,3.431,20.662,20.662,0,0,1-7.336,1.214H6856a2.48,2.48,0,0,1-1.583-.369,1.854,1.854,0,0,1-.423-1.424v-.951a6.96,6.96,0,0,1,2.323-5.385,8.453,8.453,0,0,1,5.912-2.11h6.229l-8.552-26.291q-2.111-6.337,1.9-9.079a9.73,9.73,0,0,1,1.531-.9,17.785,17.785,0,0,1,2.165-.791l.739-.315c.563-.213.985.07,1.267.845l12.036,36.531h1.056a5.754,5.754,0,0,0,5.016-2.482,10.671,10.671,0,0,0,1.74-6.281v-31.041a10.907,10.907,0,0,1,1.057-5.016,5.5,5.5,0,0,1,3.167-2.8,12.706,12.706,0,0,1,1.691-.633,9.211,9.211,0,0,1,2.322-.212h.949c.774,0,1.161.351,1.161,1.057v38.854q0,4.75,2.323,6.651a7.838,7.838,0,0,0,5.067,1.9h14.992a19.851,19.851,0,0,1-2.27-4.963,21.342,21.342,0,0,1-.9-5.279,20.312,20.312,0,0,1,2.692-10.559,18.636,18.636,0,0,1,7.285-7.021,20.882,20.882,0,0,1,10.083-2.48q6.442,0,10.5,2.9a8.908,8.908,0,0,1,4.171,7.23,4.313,4.313,0,0,1-.369,1.849,1.331,1.331,0,0,1-1.319.792,3.015,3.015,0,0,1-1.584-.527,30.036,30.036,0,0,0-4.171-1.743,17.173,17.173,0,0,0-5.649-.9,11.483,11.483,0,0,0-7.972,2.8,10.217,10.217,0,0,0-3.22,7.761,11.507,11.507,0,0,0,1.057,4.7,9.369,9.369,0,0,0,3.22,3.908,9.2,9.2,0,0,0,5.437,1.53h11.3a9.282,9.282,0,0,1,6.494,2.163,7.047,7.047,0,0,1,2.375,5.438v.846q0,1.16-.37,1.476a2.517,2.517,0,0,1-1.53.317Zm24.971-48.25a5.561,5.561,0,0,1-1.639-4.01,5.346,5.346,0,0,1,1.639-4.014,5.487,5.487,0,0,1,3.958-1.583,5.312,5.312,0,0,1,3.906,1.583,5.435,5.435,0,0,1,1.584,4.014,5.656,5.656,0,0,1-1.584,4.01,5.145,5.145,0,0,1-3.906,1.69A5.31,5.31,0,0,1,6932.183,8679.45Z" transform="translate(-6515.999 -7871)" fill="#6a1b9a" stroke="rgba(0,0,0,0)" stroke-miterlimit="10" stroke-width="1"/>
  </g>
</svg>
