<svg width="80" height="70" viewBox="0 0 100 100" fill="none" xmlns="http://www.w3.org/2000/svg">
<path d="M76.6223 85.5306H22.9097C17.9884 85.5306 14 81.2856 14 76.0464V23.4838C14 18.246 17.9884 14 22.9097 14H76.6223C81.5427 14 85.5321 18.246 85.5321 23.4838V76.0464C85.5321 81.2841 81.5436 85.5301 76.6223 85.5301" fill="#6A1B9A"/>
<path d="M50.7023 62.3522C50.7444 65.7935 51.0228 69.2279 51.5353 72.631C51.7135 73.8068 51.8922 74.9821 52.16 76.1277C52.7651 79.3308 53.6716 82.4695 54.8674 85.502H69.3553C67.1567 81.5678 65.6474 77.2865 64.8926 72.8433C64.4599 70.715 64.1717 68.5599 64.0299 66.3928C63.9106 65.0061 63.8517 63.5893 63.8215 62.1122L50.7023 62.3522Z" fill="url(#paint0_linear_994_6200)"/>
<path d="M38.2641 83.8325L34.4816 71.0988C51.8805 65.7919 61.2698 54.9031 63.672 37.0509C63.7784 36.189 64.0549 35.3567 64.4853 34.6023C64.9157 33.848 65.4916 33.1865 66.1795 32.6564C66.8674 32.1262 67.6537 31.7378 68.4928 31.5137C69.3319 31.2896 70.2072 31.2342 71.0678 31.3508C71.9285 31.4674 72.7574 31.7537 73.5066 32.193C74.2559 32.6323 74.9105 33.2159 75.4325 33.91C75.9545 34.6042 76.3336 35.395 76.5478 36.2367C76.762 37.0784 76.807 37.9542 76.6802 38.8134C73.5623 61.8712 60.667 76.9997 38.2641 83.8325Z" fill="url(#paint1_linear_994_6200)"/>
<path d="M38.0178 84.2872L34.0279 70.8564L34.3731 70.7512C51.7286 65.4594 60.9231 54.7331 63.3088 37.0028C63.532 35.3219 64.3511 33.7771 65.6171 32.6492C66.8695 31.5334 68.4877 30.916 70.1649 30.9139C70.274 30.9139 70.3845 30.9164 70.4936 30.9217C71.4686 30.966 72.4228 31.2191 73.2916 31.6637C74.13 32.0917 74.8723 32.6861 75.4733 33.4106C76.0991 34.1607 76.5615 35.0331 76.8309 35.972C77.1004 36.911 77.1709 37.8958 77.0381 38.8636C76.6642 41.6672 76.1182 44.4452 75.4032 47.1818C74.7269 49.7624 73.8728 52.2932 72.8471 54.756C71.8619 57.1147 70.7002 59.3956 69.3718 61.5795C66.7648 65.8585 63.4924 69.6944 59.6777 72.9431C57.7248 74.6047 55.6499 76.1174 53.4706 77.4686C51.1908 78.8792 48.817 80.1318 46.3657 81.2175C43.7626 82.3675 41.0919 83.358 38.3683 84.1835L38.0178 84.2872ZM34.9301 71.3403L38.5057 83.3772C60.52 76.5469 73.2405 61.5391 76.317 38.7647C76.434 37.8972 76.3698 37.0148 76.1283 36.1733C75.8869 35.3319 75.4735 34.5496 74.9144 33.8761C74.3695 33.213 73.6913 32.6719 72.9237 32.288C72.1561 31.9041 71.3164 31.6859 70.459 31.6477C70.3616 31.6428 70.2643 31.6408 70.1669 31.6408C68.6582 31.6585 67.2066 32.2205 66.0794 33.2235C64.9522 34.2264 64.2253 35.6027 64.0323 37.0992C63.7463 39.2594 63.3327 41.4008 62.7937 43.5122C62.2895 45.4812 61.6502 47.4132 60.8803 49.2943C60.147 51.08 59.2772 52.8066 58.2785 54.4585C56.3252 57.6815 53.8538 60.5602 50.9637 62.9788C49.4748 64.224 47.8936 65.3545 46.2337 66.3606C44.4803 67.4205 42.6576 68.3613 40.7779 69.1767C38.8695 70.0038 36.9173 70.7261 34.9301 71.3403Z" fill="white"/>
<path d="M80.9827 30.0327C79.7832 30.3561 78.6186 30.7974 77.506 31.3502C77.4095 31.3936 77.3333 31.4724 77.2934 31.5704C77.2535 31.6684 77.2528 31.778 77.2915 31.8765C77.3302 31.975 77.4053 32.0548 77.5012 32.0994C77.5972 32.144 77.7066 32.15 77.8069 32.116C78.9973 31.7587 80.1495 31.2844 81.2466 30.7002C81.3099 30.6503 81.3555 30.5813 81.3765 30.5035C81.3975 30.4256 81.3929 30.343 81.3632 30.268C81.3336 30.193 81.2806 30.1296 81.212 30.0871C81.1435 30.0446 81.0631 30.0259 80.9827 30.0327Z" fill="white"/>
<path d="M79.6809 26.22C79.7484 26.1284 79.7814 26.0159 79.774 25.9023C79.7666 25.7887 79.7192 25.6814 79.6402 25.5994C79.5613 25.5175 79.4558 25.4661 79.3426 25.4543C79.2294 25.4426 79.1157 25.4714 79.0216 25.5354C77.9379 26.258 77.0586 27.3369 76.1389 28.2619C75.6033 28.7975 76.5318 29.5185 77.0615 28.9922C77.9505 28.109 78.9817 27.2643 79.6809 26.2171" fill="white"/>
<path d="M62.5459 25.6878C63.1715 26.7712 63.9014 27.791 64.7251 28.7327C64.7926 28.8143 64.8891 28.8666 64.9943 28.8785C65.0995 28.8905 65.2053 28.8611 65.2893 28.7966C65.3733 28.7322 65.4291 28.6376 65.4448 28.5329C65.4605 28.4281 65.435 28.3214 65.3736 28.2351C64.7184 27.1696 63.9606 26.1707 63.1111 25.2525C62.8536 24.994 62.3774 25.3689 62.5459 25.6878Z" fill="white"/>
<path d="M59.2654 27.9742C59.1581 27.9343 59.0401 27.9337 58.9324 27.9726C58.8247 28.0115 58.7343 28.0874 58.6772 28.1867C58.6202 28.2859 58.6002 28.4022 58.6208 28.5149C58.6414 28.6275 58.7012 28.7292 58.7897 28.8018C59.7635 29.668 61.0293 30.2396 62.1521 30.891C62.8059 31.2698 63.2431 30.1729 62.6014 29.7955C61.5245 29.1626 60.4465 28.3802 59.2659 27.9756" fill="white"/>
<path d="M71.7657 28.1883C72.2998 27.676 72.7319 27.0673 73.0394 26.3941C73.237 26.095 73.3453 25.7458 73.3514 25.3873C73.3227 25.2319 73.2614 25.0843 73.1715 24.9542C73.0816 24.8242 72.9652 24.7147 72.8299 24.6328C72.6947 24.551 72.5436 24.4988 72.3867 24.4795C72.2298 24.4603 72.0706 24.4745 71.9196 24.5212C71.62 24.6409 71.3611 24.8441 71.1736 25.1067C70.986 25.3692 70.8778 25.68 70.8616 26.0022C70.8205 25.6057 70.6463 25.2349 70.3674 24.9501C70.2408 24.7957 70.0659 24.6884 69.8709 24.6455C69.6758 24.6027 69.4721 24.6268 69.2924 24.714C69.167 24.8053 69.0731 24.9335 69.0236 25.0806C68.8041 25.6814 69.1746 26.3294 69.5699 26.8299C70.0348 27.4184 70.5567 27.9595 71.1279 28.4453" fill="white"/>
<path d="M55.0739 47.1671C53.9617 40.1449 47.4585 35.3394 40.5486 36.4339C33.6387 37.5283 28.9388 44.1081 30.051 51.1303C31.1632 58.1526 37.6664 62.958 44.5763 61.8636C51.4862 60.7692 56.1861 54.1893 55.0739 47.1671Z" fill="url(#paint2_linear_994_6200)"/>
<path d="M43.07 57.2C43.07 57.2 49.9709 61.0716 49.0011 52.9238L43.07 57.2Z" fill="#6A1B9A"/>
<path d="M30.769 51.0166C31.2619 54.1922 32.9877 57.0451 35.5716 58.9558C36.1915 59.4139 36.8539 59.8117 37.5496 60.1435C38.2481 60.4768 38.9774 60.741 39.7272 60.9324C41.2749 61.3236 42.8858 61.3965 44.4625 61.1468C46.0392 60.897 47.5488 60.3299 48.8999 59.4796C49.5539 59.0658 50.1658 58.5892 50.7271 58.0564C51.8497 56.9904 52.7576 55.7191 53.4016 54.3114C54.5755 51.7533 54.8336 48.8692 54.1326 46.1433C53.4316 43.4174 51.8141 41.0157 49.5518 39.3413C48.9319 38.8831 48.2695 38.4854 47.5738 38.1535C46.8754 37.8203 46.1461 37.5561 45.3963 37.3647C43.8486 36.9735 42.2376 36.9006 40.6609 37.1503C39.0842 37.4 37.5746 37.9672 36.2235 38.8175C35.5696 39.2312 34.9576 39.7079 34.3963 40.2407C33.2742 41.3064 32.3666 42.5773 31.7226 43.9846C30.7162 46.1826 30.3843 48.6298 30.769 51.0166ZM30.051 51.1303C29.4944 47.7894 30.2877 44.3642 32.2564 41.6081C34.225 38.852 37.2078 36.9908 40.5486 36.4338C43.8981 35.9312 47.3101 36.7796 50.034 38.7924C52.758 40.8052 54.5709 43.8176 55.0739 47.167C55.6305 50.508 54.8372 53.9331 52.8686 56.6892C50.8999 59.4453 47.9172 61.3065 44.5763 61.8635C41.2269 62.3662 37.8149 61.5178 35.0909 59.5049C32.367 57.4921 30.5541 54.4797 30.051 51.1303Z" fill="white"/>
<defs>
<linearGradient id="paint0_linear_994_6200" x1="63.4423" y1="69.5501" x2="71.8815" y2="84.0296" gradientUnits="userSpaceOnUse">
<stop stop-color="#F48D07"/>
<stop offset="1" stop-color="#F8B136"/>
</linearGradient>
<linearGradient id="paint1_linear_994_6200" x1="55.6161" y1="31.2914" x2="55.6161" y2="83.8325" gradientUnits="userSpaceOnUse">
<stop stop-color="#F6B33B"/>
<stop offset="0.381" stop-color="#F29101"/>
<stop offset="1" stop-color="#F6AD30"/>
</linearGradient>
<linearGradient id="paint2_linear_994_6200" x1="44.9627" y1="36.9338" x2="39.4734" y2="61.3964" gradientUnits="userSpaceOnUse">
<stop stop-color="#F6A428"/>
<stop offset="0.366" stop-color="#F39203"/>
<stop offset="1" stop-color="#F7AD2A"/>
</linearGradient>
</defs>
</svg>
