<svg xmlns="http://www.w3.org/2000/svg" xmlns:xlink="http://www.w3.org/1999/xlink" width="250.708" height="250.946" viewBox="0 0 250.708 250.946">
  <defs>
    <linearGradient id="linear-gradient" x1="0.683" y1="0.318" x2="1" y2="1" gradientUnits="objectBoundingBox">
      <stop offset="0" stop-color="#f48d07"/>
      <stop offset="1" stop-color="#f8b136"/>
    </linearGradient>
    <linearGradient id="linear-gradient-2" x1="0.5" x2="0.5" y2="1" gradientUnits="objectBoundingBox">
      <stop offset="0" stop-color="#f6b33b"/>
      <stop offset="0.381" stop-color="#f29101"/>
      <stop offset="1" stop-color="#f6ad30"/>
    </linearGradient>
    <linearGradient id="linear-gradient-3" x1="0.954" y1="0.669" x2="0.045" y2="0.314" gradientUnits="objectBoundingBox">
      <stop offset="0" stop-color="#f6a428"/>
      <stop offset="0.366" stop-color="#f39203"/>
      <stop offset="1" stop-color="#f7ad2a"/>
    </linearGradient>
  </defs>
  <g id="logo-l" transform="translate(-343.554 -815.554)">
    <g id="logo-main" transform="translate(205.54 654)">
      <g id="Group_1599" data-name="Group 1599" transform="translate(190 180)">
        <path id="bg" d="M128.622,146.919H18.3C8.192,146.919,0,138.2,0,127.439V19.479C0,8.721,8.192,0,18.3,0H128.622c10.106,0,18.3,8.721,18.3,19.479v107.96c0,10.758-8.192,19.479-18.3,19.479" fill="#6a1b9a"/>
        <path id="body" d="M200.188,234.072a154.473,154.473,0,0,0,1.711,21.112c.366,2.415.733,4.829,1.283,7.182a106.241,106.241,0,0,0,5.561,19.254H238.5a81.162,81.162,0,0,1-9.166-26,98.911,98.911,0,0,1-1.772-13.249c-.245-2.848-.366-5.758-.428-8.792Z" transform="translate(-124.804 -134.76)" fill="url(#linear-gradient)"/>
        <g id="hands" transform="translate(41.136 34.74)">
          <path id="hand" d="M129.2,191.825l-7.769-26.154c35.736-10.9,55.021-33.265,59.955-69.932a13.482,13.482,0,1,1,26.718,3.62C201.7,146.718,175.214,177.791,129.2,191.825Z" transform="translate(-120.499 -83.134)" fill="url(#linear-gradient-2)"/>
          <path id="hand-border" d="M127.43,191.741l-8.195-27.586.709-.216c35.647-10.869,54.532-32.9,59.432-69.317a14.54,14.54,0,0,1,4.741-8.942,14.069,14.069,0,0,1,9.341-3.564c.224,0,.451.005.675.016a14.011,14.011,0,0,1,5.747,1.524,14.228,14.228,0,0,1,4.481,3.588,14.421,14.421,0,0,1,3.214,11.2,141.659,141.659,0,0,1-3.358,17.085,118.8,118.8,0,0,1-5.25,15.557,104.4,104.4,0,0,1-7.138,14.015,96.832,96.832,0,0,1-19.911,23.34,105.3,105.3,0,0,1-12.749,9.295,120.373,120.373,0,0,1-14.593,7.7,144.012,144.012,0,0,1-16.426,6.092Zm-6.342-26.592,7.344,24.723c45.216-14.029,71.343-44.854,77.662-91.631A13,13,0,0,0,203.213,88.2a12.569,12.569,0,0,0-9.151-4.577c-.2-.01-.4-.014-.6-.014a12.856,12.856,0,0,0-12.6,11.211,113.48,113.48,0,0,1-2.544,13.172,90.871,90.871,0,0,1-3.93,11.876,77.14,77.14,0,0,1-5.344,10.607,70.395,70.395,0,0,1-15.024,17.5,78.833,78.833,0,0,1-9.715,6.946,93.874,93.874,0,0,1-11.206,5.784A117.316,117.316,0,0,1,121.088,165.149Z" transform="translate(-119.235 -82.116)" fill="#fff"/>
        </g>
        <g id="spark" transform="translate(91.635 21.511)">
          <path id="spark-4" d="M336.766,77.815a38.67,38.67,0,0,0-7.141,2.706.846.846,0,0,0,.618,1.573,38.721,38.721,0,0,0,7.065-2.908.77.77,0,0,0-.542-1.372" transform="translate(-290.823 -66.396)" fill="#fff"/>
          <path id="spark-3" d="M330.507,57.161a.99.99,0,0,0-1.354-1.406c-2.226,1.484-4.032,3.7-5.921,5.6-1.1,1.1.807,2.581,1.895,1.5,1.826-1.814,3.944-3.549,5.38-5.7" transform="translate(-287.238 -53.573)" fill="#fff"/>
          <path id="spark-2" d="M257.589,55.283a39.488,39.488,0,0,0,4.476,6.254.84.84,0,0,0,1.332-1.022,39.448,39.448,0,0,0-4.647-6.126c-.529-.531-1.507.239-1.161.894" transform="translate(-249.514 -52.788)" fill="#fff"/>
          <path id="spark-1" d="M239.938,67.759a.994.994,0,0,0-.977,1.7c2,1.779,4.6,2.953,6.906,4.291,1.343.778,2.241-1.475.923-2.25-2.212-1.3-4.426-2.907-6.851-3.738" transform="translate(-238.601 -60.568)" fill="#fff"/>
          <path id="heart" d="M294.587,58.477a12.032,12.032,0,0,0,2.616-3.685,3.872,3.872,0,0,0,.641-2.068,2.3,2.3,0,0,0-2.941-1.779,3.463,3.463,0,0,0-2.173,3.042,3.622,3.622,0,0,0-1.015-2.161,1.825,1.825,0,0,0-2.208-.485,1.537,1.537,0,0,0-.552.753c-.451,1.234.31,2.565,1.122,3.593a23.392,23.392,0,0,0,3.2,3.318" transform="translate(-267.575 -50.846)" fill="#fff"/>
        </g>
        <g id="head" transform="translate(28.831 42.007)">
          <ellipse id="head-2" data-name="head" cx="26.441" cy="26.018" rx="26.441" ry="26.018" transform="translate(8.273 60.372) rotate(-99)" fill="url(#linear-gradient-3)"/>
          <path id="mouth" d="M163.134,197.757s14.174,7.952,12.182-8.783Z" transform="translate(-132.257 -151.034)" fill="#6a1b9a"/>
          <path id="head-border" d="M26.441,1.493A25.062,25.062,0,0,0,8.792,8.685a24.8,24.8,0,0,0-3.045,3.631,24.4,24.4,0,0,0-2.3,4.164,24.226,24.226,0,0,0,0,19.075,24.4,24.4,0,0,0,2.3,4.164,24.885,24.885,0,0,0,6.738,6.629,25.185,25.185,0,0,0,31.606-3,24.8,24.8,0,0,0,3.045-3.631,24.4,24.4,0,0,0,2.3-4.164,24.226,24.226,0,0,0,0-19.075,24.4,24.4,0,0,0-2.3-4.164A24.885,24.885,0,0,0,40.4,5.687,25.1,25.1,0,0,0,26.441,1.493m0-1.493A26.232,26.232,0,0,1,52.882,26.018,26.232,26.232,0,0,1,26.441,52.036,26.232,26.232,0,0,1,0,26.018,26.232,26.232,0,0,1,26.441,0Z" transform="translate(8.273 60.372) rotate(-99)" fill="#fff"/>
        </g>
      </g>
      <path id="Path_80" data-name="Path 80" d="M32.213-48.226h1.919v5.318H32.377a10.03,10.03,0,0,1-4.112-.74,8.609,8.609,0,0,1-2.577-1.672,8.41,8.41,0,0,1-2.878,1.782A10.749,10.749,0,0,1,19-42.908H6.718A1.288,1.288,0,0,1,5.9-43.1a.967.967,0,0,1-.219-.74v-.493a3.612,3.612,0,0,1,1.206-2.8,4.389,4.389,0,0,1,3.07-1.1h3.235L8.746-61.878q-1.1-3.29.987-4.715a5.017,5.017,0,0,1,.8-.466,9.071,9.071,0,0,1,1.124-.411l.384-.164q.439-.164.658.439l6.25,18.97h.548a2.987,2.987,0,0,0,2.6-1.288,5.544,5.544,0,0,0,.9-3.262V-68.9a5.656,5.656,0,0,1,.548-2.6,2.856,2.856,0,0,1,1.645-1.453,6.808,6.808,0,0,1,.877-.329,4.792,4.792,0,0,1,1.206-.11h.493q.6,0,.6.548v20.177a4.248,4.248,0,0,0,1.206,3.454A4.069,4.069,0,0,0,32.213-48.226ZM48.332-67.087a2.757,2.757,0,0,1-2.056-.877,2.892,2.892,0,0,1-.85-2.083,2.776,2.776,0,0,1,.85-2.083,2.849,2.849,0,0,1,2.056-.822,2.756,2.756,0,0,1,2.029.822,2.823,2.823,0,0,1,.822,2.083,2.943,2.943,0,0,1-.822,2.083A2.671,2.671,0,0,1,48.332-67.087Zm.493,18.861h5.867A4.818,4.818,0,0,1,58.064-47.1,3.658,3.658,0,0,1,59.3-44.278v.439q0,.6-.192.768a1.312,1.312,0,0,1-.8.164h-25v-5.318H40A10.278,10.278,0,0,1,38.82-50.8a11.047,11.047,0,0,1-.466-2.741,10.546,10.546,0,0,1,1.4-5.483,9.67,9.67,0,0,1,3.783-3.646,10.839,10.839,0,0,1,5.236-1.288,9.17,9.17,0,0,1,5.455,1.508A4.631,4.631,0,0,1,56.392-58.7a2.248,2.248,0,0,1-.192.959.692.692,0,0,1-.685.411,1.569,1.569,0,0,1-.822-.274,15.548,15.548,0,0,0-2.166-.9,8.9,8.9,0,0,0-2.933-.466,5.96,5.96,0,0,0-4.14,1.453,5.3,5.3,0,0,0-1.672,4.03,5.973,5.973,0,0,0,.548,2.44A4.869,4.869,0,0,0,46-49.021,4.77,4.77,0,0,0,48.826-48.226ZM82.49-58.2a16.389,16.389,0,0,1,.959,3.893,35.034,35.034,0,0,1,.3,4.66q0,3.564-.3,7.018a15.78,15.78,0,0,1-1.782,6.2,9.029,9.029,0,0,1-3.509,3.92,9.273,9.273,0,0,1-5.1,1.343,10.162,10.162,0,0,1-3.482-.548,9.119,9.119,0,0,1-2.6-1.426A6.331,6.331,0,0,1,65.795-34.6a5.17,5.17,0,0,1-.631-1.672q-.164-.987.768-.987a1.242,1.242,0,0,1,.439.082q.219.082.384.137,1.206.384,2.275.631a13.109,13.109,0,0,0,3.1.192A5.29,5.29,0,0,0,76.541-38.3a9.66,9.66,0,0,0,1.727-5.209,11.318,11.318,0,0,1-2.549.9,10.862,10.862,0,0,1-2.221.247,9.152,9.152,0,0,1-4.935-1.453,9.355,9.355,0,0,1-3.317-3.811,12.2,12.2,0,0,1-1.179-5.428A12.606,12.606,0,0,1,65.356-59a8.925,8.925,0,0,1,3.509-3.7,9.87,9.87,0,0,1,4.962-1.261,9.05,9.05,0,0,1,5.455,1.535A9.525,9.525,0,0,1,82.49-58.2ZM78.268-49.98q0-1.535-.137-3.372a9.456,9.456,0,0,0-.576-2.878A5.721,5.721,0,0,0,76.13-58.2a3.37,3.37,0,0,0-2.3-.768A3.494,3.494,0,0,0,70.7-57.245a7.256,7.256,0,0,0-1.1,3.975,6.777,6.777,0,0,0,1.179,4.222,3.828,3.828,0,0,0,3.207,1.535,7.971,7.971,0,0,0,2.3-.329,5.62,5.62,0,0,0,1.919-.987q0-.274.027-.548T78.268-49.98Zm36.844,1.754h1.919v5.318h-1.754a10.03,10.03,0,0,1-4.112-.74,8.609,8.609,0,0,1-2.577-1.672,8.41,8.41,0,0,1-2.878,1.782,10.749,10.749,0,0,1-3.811.631H89.618A1.288,1.288,0,0,1,88.8-43.1a.967.967,0,0,1-.219-.74v-.493a3.612,3.612,0,0,1,1.206-2.8,4.389,4.389,0,0,1,3.07-1.1h3.235L91.646-61.878q-1.1-3.29.987-4.715a5.016,5.016,0,0,1,.8-.466,9.071,9.071,0,0,1,1.124-.411l.384-.164q.439-.164.658.439l6.25,18.97h.548a2.987,2.987,0,0,0,2.6-1.288,5.544,5.544,0,0,0,.9-3.262V-68.9a5.655,5.655,0,0,1,.548-2.6,2.856,2.856,0,0,1,1.645-1.453,6.808,6.808,0,0,1,.877-.329,4.792,4.792,0,0,1,1.206-.11h.493q.6,0,.6.548v20.177a4.248,4.248,0,0,0,1.206,3.454A4.069,4.069,0,0,0,115.113-48.226Zm24.947-15.736q5.7.055,8.882,2.906a9.993,9.993,0,0,1,3.18,7.84,10.325,10.325,0,0,1-2.714,7.511,9.247,9.247,0,0,1-6.936,2.8h-7.347a12.572,12.572,0,0,1-2.358-.219,4.356,4.356,0,0,1-1.809-.713,4.826,4.826,0,0,1-1.837.713,12.441,12.441,0,0,1-2.385.219h-9.814v-5.318h7.621a8.821,8.821,0,0,1-1.7-2.632,7.865,7.865,0,0,1-.658-3.125,9.185,9.185,0,0,1,2.029-6.031,4.9,4.9,0,0,1-2.851-1.7,5.3,5.3,0,0,1-1.1-3.016V-65a.781.781,0,0,1,.137-.466q.137-.192.631-.027.822.219,1.864.493a13.774,13.774,0,0,0,2.138.384,21.673,21.673,0,0,0,2.549.3q1.782.137,3.536.137.987,0,2.6.055l3.317.11Q138.743-63.962,140.059-63.962Zm-2.741,15.736h5.154a3.807,3.807,0,0,0,3.07-1.371,5.615,5.615,0,0,0,1.151-3.728q0-5.538-6.908-5.757-.384,0-.74-.027t-.795-.027a9.522,9.522,0,0,1,1.371,5.154,8.481,8.481,0,0,1-.6,3.125A7.6,7.6,0,0,1,137.318-48.226Zm-6.36-10.8a3.554,3.554,0,0,0-2.8,1.343,5.079,5.079,0,0,0-1.151,3.427,6.167,6.167,0,0,0,1.014,3.427,4.773,4.773,0,0,0,2.933,2.056,4.665,4.665,0,0,0,2.906-2.056,6.291,6.291,0,0,0,.987-3.427,5.134,5.134,0,0,0-1.124-3.454A3.5,3.5,0,0,0,130.958-59.027Z" transform="translate(184.799 408.489)" fill="#fbf2ff"/>
      <path id="Path_82" data-name="Path 82" d="M-177.193-36.371v5.309q0,.208-.185.208h-1.385q-.185,0-.185-.208V-43.481q0-.208.185-.208h.162q1.408,0,1.408,1.639v4.04h5.679v-5.471q0-.208.185-.208h.162q1.408,0,1.408,1.639v10.988q0,.208-.185.208h-1.385q-.185,0-.185-.208v-5.309Zm15.651,4.317a3.211,3.211,0,0,1-1.223,1.062,3.609,3.609,0,0,1-1.593.346,3.766,3.766,0,0,1-2.158-.6,3.806,3.806,0,0,1-1.35-1.616,5.348,5.348,0,0,1-.462-2.239,5.02,5.02,0,0,1,.508-2.3,3.927,3.927,0,0,1,1.42-1.581,3.865,3.865,0,0,1,2.112-.577,3.7,3.7,0,0,1,1.7.369,3.018,3.018,0,0,1,1.143.97,1.366,1.366,0,0,1,.462-.866,1.4,1.4,0,0,1,.877-.265H-160q.162,0,.162.208v8.079q0,.208-.162.208h-1.362q-.185,0-.185-.208Zm-2.562-.208a3.044,3.044,0,0,0,1.166-.242,2.171,2.171,0,0,0,.993-.866,3.167,3.167,0,0,0,.4-1.731,3.156,3.156,0,0,0-.4-1.743,2.128,2.128,0,0,0-.981-.843,2.98,2.98,0,0,0-1.108-.231,2.531,2.531,0,0,0-1.754.693,2.732,2.732,0,0,0-.762,2.124,3.164,3.164,0,0,0,.381,1.662,2.3,2.3,0,0,0,.946.9A2.53,2.53,0,0,0-164.1-32.262Zm7.941,1.616a2.016,2.016,0,0,1-1.57-.635,2.946,2.946,0,0,1-.577-2.02v-10.18q0-.208.185-.208h.115q1.408,0,1.408,1.593v8.68q0,1.2.9,1.2a1.206,1.206,0,0,0,.623-.15,2.114,2.114,0,0,0,.485-.4.315.315,0,0,1,.231-.139.165.165,0,0,1,.162.092.458.458,0,0,1,.046.208,2.156,2.156,0,0,1-.2.831,1.963,1.963,0,0,1-.635.8A1.893,1.893,0,0,1-156.163-30.646Zm8.7-1.408a3.211,3.211,0,0,1-1.223,1.062,3.609,3.609,0,0,1-1.593.346,3.766,3.766,0,0,1-2.158-.6,3.806,3.806,0,0,1-1.35-1.616,5.348,5.348,0,0,1-.462-2.239,5.02,5.02,0,0,1,.508-2.3,3.927,3.927,0,0,1,1.42-1.581,3.865,3.865,0,0,1,2.112-.577,3.7,3.7,0,0,1,1.7.369,3.018,3.018,0,0,1,1.143.97,1.366,1.366,0,0,1,.462-.866,1.4,1.4,0,0,1,.877-.265h.115q.162,0,.162.208v8.079q0,.208-.162.208h-1.362q-.185,0-.185-.208Zm-2.562-.208a3.044,3.044,0,0,0,1.166-.242,2.171,2.171,0,0,0,.993-.866,3.167,3.167,0,0,0,.4-1.731,3.157,3.157,0,0,0-.4-1.743,2.128,2.128,0,0,0-.981-.843,2.98,2.98,0,0,0-1.108-.231,2.531,2.531,0,0,0-1.754.693,2.732,2.732,0,0,0-.762,2.124,3.164,3.164,0,0,0,.381,1.662,2.3,2.3,0,0,0,.946.9A2.53,2.53,0,0,0-150.023-32.262Zm11.8-.808,1.847-6.071a.272.272,0,0,1,.277-.208h.231a1.6,1.6,0,0,1,1.05.3,2.386,2.386,0,0,1,.612,1.131l1.5,4.848,1.731-6.025a.359.359,0,0,1,.369-.254h1.154q.208,0,.139.185l-2.516,8.126a.293.293,0,0,1-.069.139.267.267,0,0,1-.185.046h-1.27a.254.254,0,0,1-.254-.185l-1.916-6.025-1.87,6.025a.241.241,0,0,1-.231.185h-1.316a.274.274,0,0,1-.173-.046.407.407,0,0,1-.1-.139l-2.493-8.126q-.046-.185.139-.185h.3a1.748,1.748,0,0,1,1.085.3,2,2,0,0,1,.6,1.131Zm16.044,1.016a3.211,3.211,0,0,1-1.223,1.062,3.609,3.609,0,0,1-1.593.346,3.766,3.766,0,0,1-2.158-.6,3.806,3.806,0,0,1-1.35-1.616,5.348,5.348,0,0,1-.462-2.239,5.02,5.02,0,0,1,.508-2.3,3.926,3.926,0,0,1,1.42-1.581,3.865,3.865,0,0,1,2.112-.577,3.7,3.7,0,0,1,1.7.369,3.018,3.018,0,0,1,1.143.97,1.366,1.366,0,0,1,.462-.866,1.4,1.4,0,0,1,.877-.265h.115q.162,0,.162.208v8.079q0,.208-.162.208H-122q-.185,0-.185-.208Zm-2.562-.208a3.044,3.044,0,0,0,1.166-.242,2.171,2.171,0,0,0,.993-.866,3.167,3.167,0,0,0,.4-1.731,3.156,3.156,0,0,0-.4-1.743,2.128,2.128,0,0,0-.981-.843,2.98,2.98,0,0,0-1.108-.231,2.531,2.531,0,0,0-1.754.693,2.732,2.732,0,0,0-.762,2.124,3.164,3.164,0,0,0,.381,1.662,2.3,2.3,0,0,0,.946.9A2.53,2.53,0,0,0-124.746-32.262Zm18.075-1.062v-2.7h-2.4a1.022,1.022,0,0,1-.773-.277,1.023,1.023,0,0,1-.265-.739v-.369q0-.254.231-.254h4.663a.2.2,0,0,1,.231.231v4.247a1.218,1.218,0,0,1-.092.531,1.836,1.836,0,0,1-.346.439,7.666,7.666,0,0,1-1.974,1.177,6.2,6.2,0,0,1-2.366.439,6.134,6.134,0,0,1-3.047-.762,5.374,5.374,0,0,1-2.147-2.251,7.827,7.827,0,0,1-.785-3.682,7.735,7.735,0,0,1,.75-3.52,5.508,5.508,0,0,1,2.124-2.308,6.166,6.166,0,0,1,3.22-.819,8.247,8.247,0,0,1,1.789.173,6.987,6.987,0,0,1,1.42.473,1.618,1.618,0,0,1,.808.554,1.059,1.059,0,0,1,.092.831l-.115.485q-.092.231-.231.231a.665.665,0,0,1-.323-.139,6.572,6.572,0,0,0-1.57-.693,6.2,6.2,0,0,0-1.777-.254A4.134,4.134,0,0,0-112.777-41a5.509,5.509,0,0,0-1.166,3.82,5.4,5.4,0,0,0,1.108,3.624,3.828,3.828,0,0,0,3.07,1.293,5.617,5.617,0,0,0,1.593-.231A4.164,4.164,0,0,0-106.671-33.324Zm4.8-4.986a2.691,2.691,0,0,1,1.016-.889,3.387,3.387,0,0,1,1.616-.358,3.315,3.315,0,0,1,2.516.993,3.752,3.752,0,0,1,.946,2.7v4.8q0,.208-.185.208h-1.362q-.185,0-.185-.208v-4.5a2.506,2.506,0,0,0-.577-1.8,2.046,2.046,0,0,0-1.547-.6,2.191,2.191,0,0,0-1.639.612,2.63,2.63,0,0,0-.6,1.9v4.386q0,.208-.162.208h-1.362q-.185,0-.185-.208V-43.481q0-.208.185-.208h.115q1.408,0,1.408,1.593ZM-87.9-32.054a3.211,3.211,0,0,1-1.223,1.062,3.609,3.609,0,0,1-1.593.346,3.766,3.766,0,0,1-2.158-.6,3.806,3.806,0,0,1-1.35-1.616A5.348,5.348,0,0,1-94.69-35.1a5.02,5.02,0,0,1,.508-2.3,3.927,3.927,0,0,1,1.42-1.581,3.865,3.865,0,0,1,2.112-.577,3.7,3.7,0,0,1,1.7.369,3.018,3.018,0,0,1,1.143.97,1.366,1.366,0,0,1,.462-.866,1.4,1.4,0,0,1,.877-.265h.115q.162,0,.162.208v8.079q0,.208-.162.208h-1.362q-.185,0-.185-.208Zm-2.562-.208A3.044,3.044,0,0,0-89.3-32.5a2.171,2.171,0,0,0,.993-.866,3.167,3.167,0,0,0,.4-1.731,3.156,3.156,0,0,0-.4-1.743,2.128,2.128,0,0,0-.981-.843,2.98,2.98,0,0,0-1.108-.231,2.531,2.531,0,0,0-1.754.693,2.732,2.732,0,0,0-.762,2.124,3.164,3.164,0,0,0,.381,1.662,2.3,2.3,0,0,0,.946.9A2.53,2.53,0,0,0-90.466-32.262Zm7.941,1.616a2.016,2.016,0,0,1-1.57-.635,2.946,2.946,0,0,1-.577-2.02v-10.18q0-.208.185-.208h.115q1.408,0,1.408,1.593v8.68q0,1.2.9,1.2a1.206,1.206,0,0,0,.623-.15,2.114,2.114,0,0,0,.485-.4.315.315,0,0,1,.231-.139.165.165,0,0,1,.162.092.458.458,0,0,1,.046.208,2.156,2.156,0,0,1-.2.831,1.963,1.963,0,0,1-.635.8A1.893,1.893,0,0,1-82.525-30.646Zm8.7-1.408a3.211,3.211,0,0,1-1.223,1.062,3.609,3.609,0,0,1-1.593.346,3.766,3.766,0,0,1-2.158-.6,3.806,3.806,0,0,1-1.35-1.616,5.348,5.348,0,0,1-.462-2.239,5.02,5.02,0,0,1,.508-2.3,3.927,3.927,0,0,1,1.42-1.581,3.865,3.865,0,0,1,2.112-.577,3.7,3.7,0,0,1,1.7.369,3.018,3.018,0,0,1,1.143.97,1.366,1.366,0,0,1,.462-.866,1.4,1.4,0,0,1,.877-.265h.115q.162,0,.162.208v8.079q0,.208-.162.208h-1.362q-.185,0-.185-.208Zm-2.562-.208a3.044,3.044,0,0,0,1.166-.242,2.171,2.171,0,0,0,.993-.866,3.167,3.167,0,0,0,.4-1.731,3.156,3.156,0,0,0-.4-1.743,2.128,2.128,0,0,0-.981-.843,2.98,2.98,0,0,0-1.108-.231,2.531,2.531,0,0,0-1.754.693,2.732,2.732,0,0,0-.762,2.124,3.164,3.164,0,0,0,.381,1.662,2.3,2.3,0,0,0,.946.9A2.53,2.53,0,0,0-76.384-32.262Z" transform="translate(389.228 424.127)" fill="#fbf2ff"/>
    </g>
    <g id="logo-h-ara_guide" data-name="logo-h-ara guide" transform="translate(344 816)" opacity="0">
      <g id="Group_1626" data-name="Group 1626" transform="translate(231.542)" opacity="0.2">
        <path id="bg-2" data-name="bg" d="M15.743,17.983H2.24A2.315,2.315,0,0,1,0,15.6V2.384A2.315,2.315,0,0,1,2.24,0h13.5a2.315,2.315,0,0,1,2.24,2.384V15.6a2.315,2.315,0,0,1-2.24,2.384" transform="translate(0)" fill="#662583"/>
        <path id="body-2" data-name="body" d="M200.188,233.638a18.908,18.908,0,0,0,.209,2.584c.045.3.09.591.157.879a13.005,13.005,0,0,0,.681,2.357h3.642a9.936,9.936,0,0,1-1.122-3.183,12.106,12.106,0,0,1-.217-1.622c-.03-.349-.045-.7-.052-1.076Z" transform="translate(-190.721 -221.482)" fill="url(#linear-gradient)"/>
        <g id="hands-2" data-name="hands" transform="translate(5.275 4.252)">
          <path id="hand-2" data-name="hand" d="M122.377,97.094l-.951-3.2c4.374-1.334,6.735-4.072,7.339-8.56a1.65,1.65,0,1,1,3.27.443C131.252,91.572,128.01,95.376,122.377,97.094Z" transform="translate(-121.313 -83.79)" fill="url(#linear-gradient-2)"/>
          <path id="hand-border-2" data-name="hand-border" d="M120.238,95.534l-1-3.377.087-.026C123.685,90.8,126,88.1,126.6,83.647a1.78,1.78,0,0,1,.58-1.094,1.722,1.722,0,0,1,1.143-.436l.083,0a1.715,1.715,0,0,1,.7.187,1.742,1.742,0,0,1,.548.439,1.765,1.765,0,0,1,.393,1.37,17.331,17.331,0,0,1-.411,2.091,14.545,14.545,0,0,1-.643,1.9,12.78,12.78,0,0,1-.874,1.715,11.853,11.853,0,0,1-2.437,2.857,12.887,12.887,0,0,1-1.56,1.138,14.731,14.731,0,0,1-1.786.942,17.628,17.628,0,0,1-2.011.746Zm-.776-3.255.9,3.026a12.744,12.744,0,0,0,9.506-11.216,1.592,1.592,0,0,0-.353-1.229,1.538,1.538,0,0,0-1.12-.56l-.074,0a1.574,1.574,0,0,0-1.543,1.372,13.886,13.886,0,0,1-.311,1.612,11.127,11.127,0,0,1-.481,1.454,9.441,9.441,0,0,1-.654,1.3,8.617,8.617,0,0,1-1.839,2.142,9.651,9.651,0,0,1-1.189.85,11.489,11.489,0,0,1-1.372.708A14.359,14.359,0,0,1,119.462,92.279Z" transform="translate(-119.235 -82.116)" fill="#fff"/>
        </g>
        <g id="spark-2-2" data-name="spark" transform="translate(11.456 2.633)">
          <path id="spark-4-2" data-name="spark-4" d="M330.053,77.8a4.734,4.734,0,0,0-.874.331.1.1,0,0,0,.076.193,4.74,4.74,0,0,0,.865-.356.094.094,0,0,0-.066-.168" transform="translate(-324.43 -76.403)" fill="#fff"/>
          <path id="spark-3-2" data-name="spark-3" d="M323.833,55.766a.121.121,0,0,0-.166-.172,5.09,5.09,0,0,0-.725.686c-.134.135.1.316.232.184a4.9,4.9,0,0,0,.658-.7" transform="translate(-318.537 -55.327)" fill="#fff"/>
          <path id="spark-2-3" data-name="spark-2" d="M257.526,54.343a4.84,4.84,0,0,0,.548.765.1.1,0,0,0,.163-.125,4.83,4.83,0,0,0-.569-.75c-.065-.065-.184.029-.142.109" transform="translate(-256.537 -54.037)" fill="#fff"/>
          <path id="spark-1-2" data-name="spark-1" d="M238.765,67.705a.122.122,0,0,0-.12.208,5.048,5.048,0,0,0,.845.525c.164.1.274-.181.113-.275a4.846,4.846,0,0,0-.839-.458" transform="translate(-238.601 -66.825)" fill="#fff"/>
          <path id="heart-2" data-name="heart" d="M289.526,51.78a1.471,1.471,0,0,0,.32-.451.474.474,0,0,0,.078-.253.281.281,0,0,0-.36-.218.424.424,0,0,0-.266.372.443.443,0,0,0-.124-.265.223.223,0,0,0-.27-.059.189.189,0,0,0-.068.092.485.485,0,0,0,.137.44,2.865,2.865,0,0,0,.392.406" transform="translate(-286.22 -50.846)" fill="#fff"/>
        </g>
        <g id="head-3" data-name="head" transform="translate(3.769 5.142)">
          <ellipse id="head-4" data-name="head" cx="3.236" cy="3.185" rx="3.236" ry="3.185" transform="translate(1.013 7.39) rotate(-99)" fill="url(#linear-gradient-3)"/>
          <path id="mouth-2" data-name="mouth" d="M163.134,190.049s1.735.973,1.491-1.075Z" transform="translate(-159.355 -184.33)" fill="#662583"/>
          <path id="head-border-2" data-name="head-border" d="M3.236.183a3.068,3.068,0,0,0-2.16.88A3.036,3.036,0,0,0,.7,1.508a2.986,2.986,0,0,0-.281.51,2.965,2.965,0,0,0,0,2.335,2.986,2.986,0,0,0,.281.51,3.046,3.046,0,0,0,.825.811A3.083,3.083,0,0,0,5.4,5.306a3.036,3.036,0,0,0,.373-.444,2.986,2.986,0,0,0,.281-.51,2.965,2.965,0,0,0,0-2.335,2.986,2.986,0,0,0-.281-.51A3.046,3.046,0,0,0,4.945.7,3.073,3.073,0,0,0,3.236.183m0-.183A3.211,3.211,0,0,1,6.473,3.185,3.211,3.211,0,0,1,3.236,6.369,3.211,3.211,0,0,1,0,3.185,3.211,3.211,0,0,1,3.236,0Z" transform="translate(1.013 7.39) rotate(-99)" fill="#fff"/>
        </g>
      </g>
      <g id="Group_1657" data-name="Group 1657" transform="translate(231.541 231.763)" opacity="0.2">
        <path id="bg-3" data-name="bg" d="M15.743,17.983H2.24A2.315,2.315,0,0,1,0,15.6V2.384A2.315,2.315,0,0,1,2.24,0h13.5a2.315,2.315,0,0,1,2.24,2.384V15.6a2.315,2.315,0,0,1-2.24,2.384" transform="translate(0)" fill="#662583"/>
        <path id="body-3" data-name="body" d="M200.188,233.638a18.908,18.908,0,0,0,.209,2.584c.045.3.09.591.157.879a13.005,13.005,0,0,0,.681,2.357h3.642a9.936,9.936,0,0,1-1.122-3.183,12.106,12.106,0,0,1-.217-1.622c-.03-.349-.045-.7-.052-1.076Z" transform="translate(-190.721 -221.482)" fill="url(#linear-gradient)"/>
        <g id="hands-3" data-name="hands" transform="translate(5.275 4.252)">
          <path id="hand-3" data-name="hand" d="M122.377,97.094l-.951-3.2c4.374-1.334,6.735-4.072,7.339-8.56a1.65,1.65,0,1,1,3.27.443C131.252,91.572,128.01,95.376,122.377,97.094Z" transform="translate(-121.313 -83.79)" fill="url(#linear-gradient-2)"/>
          <path id="hand-border-3" data-name="hand-border" d="M120.238,95.534l-1-3.377.087-.026C123.685,90.8,126,88.1,126.6,83.647a1.78,1.78,0,0,1,.58-1.094,1.722,1.722,0,0,1,1.143-.436l.083,0a1.715,1.715,0,0,1,.7.187,1.742,1.742,0,0,1,.548.439,1.765,1.765,0,0,1,.393,1.37,17.331,17.331,0,0,1-.411,2.091,14.545,14.545,0,0,1-.643,1.9,12.78,12.78,0,0,1-.874,1.715,11.853,11.853,0,0,1-2.437,2.857,12.887,12.887,0,0,1-1.56,1.138,14.731,14.731,0,0,1-1.786.942,17.628,17.628,0,0,1-2.011.746Zm-.776-3.255.9,3.026a12.744,12.744,0,0,0,9.506-11.216,1.592,1.592,0,0,0-.353-1.229,1.538,1.538,0,0,0-1.12-.56l-.074,0a1.574,1.574,0,0,0-1.543,1.372,13.886,13.886,0,0,1-.311,1.612,11.127,11.127,0,0,1-.481,1.454,9.441,9.441,0,0,1-.654,1.3,8.617,8.617,0,0,1-1.839,2.142,9.651,9.651,0,0,1-1.189.85,11.489,11.489,0,0,1-1.372.708A14.359,14.359,0,0,1,119.462,92.279Z" transform="translate(-119.235 -82.116)" fill="#fff"/>
        </g>
        <g id="spark-3-3" data-name="spark" transform="translate(11.456 2.633)">
          <path id="spark-4-3" data-name="spark-4" d="M330.053,77.8a4.734,4.734,0,0,0-.874.331.1.1,0,0,0,.076.193,4.74,4.74,0,0,0,.865-.356.094.094,0,0,0-.066-.168" transform="translate(-324.43 -76.403)" fill="#fff"/>
          <path id="spark-3-4" data-name="spark-3" d="M323.833,55.766a.121.121,0,0,0-.166-.172,5.09,5.09,0,0,0-.725.686c-.134.135.1.316.232.184a4.9,4.9,0,0,0,.658-.7" transform="translate(-318.537 -55.327)" fill="#fff"/>
          <path id="spark-2-4" data-name="spark-2" d="M257.526,54.343a4.84,4.84,0,0,0,.548.765.1.1,0,0,0,.163-.125,4.83,4.83,0,0,0-.569-.75c-.065-.065-.184.029-.142.109" transform="translate(-256.537 -54.037)" fill="#fff"/>
          <path id="spark-1-3" data-name="spark-1" d="M238.765,67.705a.122.122,0,0,0-.12.208,5.048,5.048,0,0,0,.845.525c.164.1.274-.181.113-.275a4.846,4.846,0,0,0-.839-.458" transform="translate(-238.601 -66.825)" fill="#fff"/>
          <path id="heart-3" data-name="heart" d="M289.526,51.78a1.471,1.471,0,0,0,.32-.451.474.474,0,0,0,.078-.253.281.281,0,0,0-.36-.218.424.424,0,0,0-.266.372.443.443,0,0,0-.124-.265.223.223,0,0,0-.27-.059.189.189,0,0,0-.068.092.485.485,0,0,0,.137.44,2.865,2.865,0,0,0,.392.406" transform="translate(-286.22 -50.846)" fill="#fff"/>
        </g>
        <g id="head-5" data-name="head" transform="translate(3.769 5.142)">
          <ellipse id="head-6" data-name="head" cx="3.236" cy="3.185" rx="3.236" ry="3.185" transform="translate(1.013 7.39) rotate(-99)" fill="url(#linear-gradient-3)"/>
          <path id="mouth-3" data-name="mouth" d="M163.134,190.049s1.735.973,1.491-1.075Z" transform="translate(-159.355 -184.33)" fill="#662583"/>
          <path id="head-border-3" data-name="head-border" d="M3.236.183a3.068,3.068,0,0,0-2.16.88A3.036,3.036,0,0,0,.7,1.508a2.986,2.986,0,0,0-.281.51,2.965,2.965,0,0,0,0,2.335,2.986,2.986,0,0,0,.281.51,3.046,3.046,0,0,0,.825.811A3.083,3.083,0,0,0,5.4,5.306a3.036,3.036,0,0,0,.373-.444,2.986,2.986,0,0,0,.281-.51,2.965,2.965,0,0,0,0-2.335,2.986,2.986,0,0,0-.281-.51A3.046,3.046,0,0,0,4.945.7,3.073,3.073,0,0,0,3.236.183m0-.183A3.211,3.211,0,0,1,6.473,3.185,3.211,3.211,0,0,1,3.236,6.369,3.211,3.211,0,0,1,0,3.185,3.211,3.211,0,0,1,3.236,0Z" transform="translate(1.013 7.39) rotate(-99)" fill="#fff"/>
        </g>
      </g>
      <line id="Line_56" data-name="Line 56" x2="147" transform="translate(51.5 172.5)" fill="none" stroke="#c4c4c4" stroke-width="1"/>
      <line id="Line_72" data-name="Line 72" x2="147" transform="translate(51.5 164.5)" fill="none" stroke="#c4c4c4" stroke-width="1"/>
      <line id="Line_48" data-name="Line 48" x2="249.708" transform="translate(0.054 0.054)" fill="none" stroke="#c4c4c4" stroke-width="1"/>
      <line id="Line_55" data-name="Line 55" x2="249.708" transform="translate(0.054 17.812)" fill="none" stroke="#c4c4c4" stroke-width="1"/>
      <line id="Line_59" data-name="Line 59" x2="249.708" transform="translate(0.054 250)" fill="none" stroke="#c4c4c4" stroke-width="1"/>
      <line id="Line_58" data-name="Line 58" x2="249.525" transform="translate(0 231.948)" fill="none" stroke="#c4c4c4" stroke-width="1"/>
      <line id="Line_49" data-name="Line 49" y2="214.136" transform="translate(198.295 17.812)" fill="none" stroke="#c4c4c4" stroke-width="1"/>
      <line id="Line_50" data-name="Line 50" y2="214.136" transform="translate(51.521 17.812)" fill="none" stroke="#c4c4c4" stroke-width="1"/>
      <line id="Line_51" data-name="Line 51" y1="249.946" transform="translate(17.795 0.054)" fill="none" stroke="#c4c4c4" stroke-width="1"/>
      <line id="Line_52" data-name="Line 52" y1="249.946" transform="translate(0.054 0.054)" fill="none" stroke="#c4c4c4" stroke-width="1"/>
      <line id="Line_53" data-name="Line 53" y1="249.946" transform="translate(232.067 0.054)" fill="none" stroke="#c4c4c4" stroke-width="1"/>
      <line id="Line_54" data-name="Line 54" y1="249.946" transform="translate(249.762 0.054)" fill="none" stroke="#c4c4c4" stroke-width="1"/>
      <g id="Group_1658" data-name="Group 1658" transform="translate(-0.237)" opacity="0.2">
        <path id="bg-4" data-name="bg" d="M15.743,17.983H2.24A2.315,2.315,0,0,1,0,15.6V2.384A2.315,2.315,0,0,1,2.24,0h13.5a2.315,2.315,0,0,1,2.24,2.384V15.6a2.315,2.315,0,0,1-2.24,2.384" transform="translate(0)" fill="#662583"/>
        <path id="body-4" data-name="body" d="M200.188,233.638a18.908,18.908,0,0,0,.209,2.584c.045.3.09.591.157.879a13.005,13.005,0,0,0,.681,2.357h3.642a9.936,9.936,0,0,1-1.122-3.183,12.106,12.106,0,0,1-.217-1.622c-.03-.349-.045-.7-.052-1.076Z" transform="translate(-190.721 -221.482)" fill="url(#linear-gradient)"/>
        <g id="hands-4" data-name="hands" transform="translate(5.275 4.252)">
          <path id="hand-4" data-name="hand" d="M122.377,97.094l-.951-3.2c4.374-1.334,6.735-4.072,7.339-8.56a1.65,1.65,0,1,1,3.27.443C131.252,91.572,128.01,95.376,122.377,97.094Z" transform="translate(-121.313 -83.79)" fill="url(#linear-gradient-2)"/>
          <path id="hand-border-4" data-name="hand-border" d="M120.238,95.534l-1-3.377.087-.026C123.685,90.8,126,88.1,126.6,83.647a1.78,1.78,0,0,1,.58-1.094,1.722,1.722,0,0,1,1.143-.436l.083,0a1.715,1.715,0,0,1,.7.187,1.742,1.742,0,0,1,.548.439,1.765,1.765,0,0,1,.393,1.37,17.331,17.331,0,0,1-.411,2.091,14.545,14.545,0,0,1-.643,1.9,12.78,12.78,0,0,1-.874,1.715,11.853,11.853,0,0,1-2.437,2.857,12.887,12.887,0,0,1-1.56,1.138,14.731,14.731,0,0,1-1.786.942,17.628,17.628,0,0,1-2.011.746Zm-.776-3.255.9,3.026a12.744,12.744,0,0,0,9.506-11.216,1.592,1.592,0,0,0-.353-1.229,1.538,1.538,0,0,0-1.12-.56l-.074,0a1.574,1.574,0,0,0-1.543,1.372,13.886,13.886,0,0,1-.311,1.612,11.127,11.127,0,0,1-.481,1.454,9.441,9.441,0,0,1-.654,1.3,8.617,8.617,0,0,1-1.839,2.142,9.651,9.651,0,0,1-1.189.85,11.489,11.489,0,0,1-1.372.708A14.359,14.359,0,0,1,119.462,92.279Z" transform="translate(-119.235 -82.116)" fill="#fff"/>
        </g>
        <g id="spark-4-4" data-name="spark" transform="translate(11.456 2.633)">
          <path id="spark-4-5" data-name="spark-4" d="M330.053,77.8a4.734,4.734,0,0,0-.874.331.1.1,0,0,0,.076.193,4.74,4.74,0,0,0,.865-.356.094.094,0,0,0-.066-.168" transform="translate(-324.43 -76.403)" fill="#fff"/>
          <path id="spark-3-5" data-name="spark-3" d="M323.833,55.766a.121.121,0,0,0-.166-.172,5.09,5.09,0,0,0-.725.686c-.134.135.1.316.232.184a4.9,4.9,0,0,0,.658-.7" transform="translate(-318.537 -55.327)" fill="#fff"/>
          <path id="spark-2-5" data-name="spark-2" d="M257.526,54.343a4.84,4.84,0,0,0,.548.765.1.1,0,0,0,.163-.125,4.83,4.83,0,0,0-.569-.75c-.065-.065-.184.029-.142.109" transform="translate(-256.537 -54.037)" fill="#fff"/>
          <path id="spark-1-4" data-name="spark-1" d="M238.765,67.705a.122.122,0,0,0-.12.208,5.048,5.048,0,0,0,.845.525c.164.1.274-.181.113-.275a4.846,4.846,0,0,0-.839-.458" transform="translate(-238.601 -66.825)" fill="#fff"/>
          <path id="heart-4" data-name="heart" d="M289.526,51.78a1.471,1.471,0,0,0,.32-.451.474.474,0,0,0,.078-.253.281.281,0,0,0-.36-.218.424.424,0,0,0-.266.372.443.443,0,0,0-.124-.265.223.223,0,0,0-.27-.059.189.189,0,0,0-.068.092.485.485,0,0,0,.137.44,2.865,2.865,0,0,0,.392.406" transform="translate(-286.22 -50.846)" fill="#fff"/>
        </g>
        <g id="head-7" data-name="head" transform="translate(3.769 5.142)">
          <ellipse id="head-8" data-name="head" cx="3.236" cy="3.185" rx="3.236" ry="3.185" transform="translate(1.013 7.39) rotate(-99)" fill="url(#linear-gradient-3)"/>
          <path id="mouth-4" data-name="mouth" d="M163.134,190.049s1.735.973,1.491-1.075Z" transform="translate(-159.355 -184.33)" fill="#662583"/>
          <path id="head-border-4" data-name="head-border" d="M3.236.183a3.068,3.068,0,0,0-2.16.88A3.036,3.036,0,0,0,.7,1.508a2.986,2.986,0,0,0-.281.51,2.965,2.965,0,0,0,0,2.335,2.986,2.986,0,0,0,.281.51,3.046,3.046,0,0,0,.825.811A3.083,3.083,0,0,0,5.4,5.306a3.036,3.036,0,0,0,.373-.444,2.986,2.986,0,0,0,.281-.51,2.965,2.965,0,0,0,0-2.335,2.986,2.986,0,0,0-.281-.51A3.046,3.046,0,0,0,4.945.7,3.073,3.073,0,0,0,3.236.183m0-.183A3.211,3.211,0,0,1,6.473,3.185,3.211,3.211,0,0,1,3.236,6.369,3.211,3.211,0,0,1,0,3.185,3.211,3.211,0,0,1,3.236,0Z" transform="translate(1.013 7.39) rotate(-99)" fill="#fff"/>
        </g>
      </g>
      <g id="Group_1659" data-name="Group 1659" transform="translate(-0.238 231.763)" opacity="0.2">
        <path id="bg-5" data-name="bg" d="M15.743,17.983H2.24A2.315,2.315,0,0,1,0,15.6V2.384A2.315,2.315,0,0,1,2.24,0h13.5a2.315,2.315,0,0,1,2.24,2.384V15.6a2.315,2.315,0,0,1-2.24,2.384" transform="translate(0)" fill="#662583"/>
        <path id="body-5" data-name="body" d="M200.188,233.638a18.908,18.908,0,0,0,.209,2.584c.045.3.09.591.157.879a13.005,13.005,0,0,0,.681,2.357h3.642a9.936,9.936,0,0,1-1.122-3.183,12.106,12.106,0,0,1-.217-1.622c-.03-.349-.045-.7-.052-1.076Z" transform="translate(-190.721 -221.482)" fill="url(#linear-gradient)"/>
        <g id="hands-5" data-name="hands" transform="translate(5.275 4.252)">
          <path id="hand-5" data-name="hand" d="M122.377,97.094l-.951-3.2c4.374-1.334,6.735-4.072,7.339-8.56a1.65,1.65,0,1,1,3.27.443C131.252,91.572,128.01,95.376,122.377,97.094Z" transform="translate(-121.313 -83.79)" fill="url(#linear-gradient-2)"/>
          <path id="hand-border-5" data-name="hand-border" d="M120.238,95.534l-1-3.377.087-.026C123.685,90.8,126,88.1,126.6,83.647a1.78,1.78,0,0,1,.58-1.094,1.722,1.722,0,0,1,1.143-.436l.083,0a1.715,1.715,0,0,1,.7.187,1.742,1.742,0,0,1,.548.439,1.765,1.765,0,0,1,.393,1.37,17.331,17.331,0,0,1-.411,2.091,14.545,14.545,0,0,1-.643,1.9,12.78,12.78,0,0,1-.874,1.715,11.853,11.853,0,0,1-2.437,2.857,12.887,12.887,0,0,1-1.56,1.138,14.731,14.731,0,0,1-1.786.942,17.628,17.628,0,0,1-2.011.746Zm-.776-3.255.9,3.026a12.744,12.744,0,0,0,9.506-11.216,1.592,1.592,0,0,0-.353-1.229,1.538,1.538,0,0,0-1.12-.56l-.074,0a1.574,1.574,0,0,0-1.543,1.372,13.886,13.886,0,0,1-.311,1.612,11.127,11.127,0,0,1-.481,1.454,9.441,9.441,0,0,1-.654,1.3,8.617,8.617,0,0,1-1.839,2.142,9.651,9.651,0,0,1-1.189.85,11.489,11.489,0,0,1-1.372.708A14.359,14.359,0,0,1,119.462,92.279Z" transform="translate(-119.235 -82.116)" fill="#fff"/>
        </g>
        <g id="spark-5" data-name="spark" transform="translate(11.456 2.633)">
          <path id="spark-4-6" data-name="spark-4" d="M330.053,77.8a4.734,4.734,0,0,0-.874.331.1.1,0,0,0,.076.193,4.74,4.74,0,0,0,.865-.356.094.094,0,0,0-.066-.168" transform="translate(-324.43 -76.403)" fill="#fff"/>
          <path id="spark-3-6" data-name="spark-3" d="M323.833,55.766a.121.121,0,0,0-.166-.172,5.09,5.09,0,0,0-.725.686c-.134.135.1.316.232.184a4.9,4.9,0,0,0,.658-.7" transform="translate(-318.537 -55.327)" fill="#fff"/>
          <path id="spark-2-6" data-name="spark-2" d="M257.526,54.343a4.84,4.84,0,0,0,.548.765.1.1,0,0,0,.163-.125,4.83,4.83,0,0,0-.569-.75c-.065-.065-.184.029-.142.109" transform="translate(-256.537 -54.037)" fill="#fff"/>
          <path id="spark-1-5" data-name="spark-1" d="M238.765,67.705a.122.122,0,0,0-.12.208,5.048,5.048,0,0,0,.845.525c.164.1.274-.181.113-.275a4.846,4.846,0,0,0-.839-.458" transform="translate(-238.601 -66.825)" fill="#fff"/>
          <path id="heart-5" data-name="heart" d="M289.526,51.78a1.471,1.471,0,0,0,.32-.451.474.474,0,0,0,.078-.253.281.281,0,0,0-.36-.218.424.424,0,0,0-.266.372.443.443,0,0,0-.124-.265.223.223,0,0,0-.27-.059.189.189,0,0,0-.068.092.485.485,0,0,0,.137.44,2.865,2.865,0,0,0,.392.406" transform="translate(-286.22 -50.846)" fill="#fff"/>
        </g>
        <g id="head-9" data-name="head" transform="translate(3.769 5.142)">
          <ellipse id="head-10" data-name="head" cx="3.236" cy="3.185" rx="3.236" ry="3.185" transform="translate(1.013 7.39) rotate(-99)" fill="url(#linear-gradient-3)"/>
          <path id="mouth-5" data-name="mouth" d="M163.134,190.049s1.735.973,1.491-1.075Z" transform="translate(-159.355 -184.33)" fill="#662583"/>
          <path id="head-border-5" data-name="head-border" d="M3.236.183a3.068,3.068,0,0,0-2.16.88A3.036,3.036,0,0,0,.7,1.508a2.986,2.986,0,0,0-.281.51,2.965,2.965,0,0,0,0,2.335,2.986,2.986,0,0,0,.281.51,3.046,3.046,0,0,0,.825.811A3.083,3.083,0,0,0,5.4,5.306a3.036,3.036,0,0,0,.373-.444,2.986,2.986,0,0,0,.281-.51,2.965,2.965,0,0,0,0-2.335,2.986,2.986,0,0,0-.281-.51A3.046,3.046,0,0,0,4.945.7,3.073,3.073,0,0,0,3.236.183m0-.183A3.211,3.211,0,0,1,6.473,3.185,3.211,3.211,0,0,1,3.236,6.369,3.211,3.211,0,0,1,0,3.185,3.211,3.211,0,0,1,3.236,0Z" transform="translate(1.013 7.39) rotate(-99)" fill="#fff"/>
        </g>
      </g>
    </g>
  </g>
</svg>
